<?xml version="1.0" encoding="UTF-8"?>
<svg xmlns="http://www.w3.org/2000/svg" xmlns:xlink="http://www.w3.org/1999/xlink" viewBox="0 0 74.63 74.63">
    <defs>
        <style>
            .cls-1 {
            opacity: .4;
            }

            .cls-1, .cls-2 {
            fill: url(#radial-gradient-2);
            }

            .cls-1, .cls-3 {
            mix-blend-mode: overlay;
            }

            .cls-4 {
            fill: #f0dabb;
            }

            .cls-5 {
            fill: #bdb9ba;
            }

            .cls-6, .cls-3 {
            fill: #d73e40;
            }

            .cls-7 {
            fill: #807d7e;
            }

            .cls-7, .cls-8 {
            mix-blend-mode: multiply;
            }

            .cls-8 {
            fill: url(#radial-gradient);
            }

            .cls-9 {
            isolation: isolate;
            }

            .cls-3 {
            opacity: .3;
            }
        </style>
        <radialGradient id="radial-gradient" cx="37.31" cy="37.31" fx="37.31" fy="37.31" r="32.96"
                        gradientUnits="userSpaceOnUse">
            <stop offset=".88" stop-color="#fff"/>
            <stop offset=".91" stop-color="#f9f8f8"/>
            <stop offset=".95" stop-color="#e9e6e7"/>
            <stop offset="1" stop-color="#cfc8cb"/>
            <stop offset="1" stop-color="#cfc8cb"/>
        </radialGradient>
        <radialGradient id="radial-gradient-2" cx="37.31" cy="37.31" fx="37.31" fy="37.31" r="37.31"
                        gradientUnits="userSpaceOnUse">
            <stop offset=".88" stop-color="#e04243"/>
            <stop offset=".9" stop-color="#da3f41"/>
            <stop offset=".94" stop-color="#d73e40"/>
            <stop offset=".98" stop-color="#d93e40"/>
            <stop offset="1" stop-color="#e04143"/>
        </radialGradient>
    </defs>
    <g class="cls-9">
        <g>
            <g>
                <g>
                    <path class="cls-8"
                          d="M37.31,4.35C19.11,4.35,4.35,19.11,4.35,37.31s14.76,32.96,32.96,32.96,32.96-14.76,32.96-32.96S55.52,4.35,37.31,4.35Z"/>
                    <polygon class="cls-5"
                             points="37.31 20.47 34.74 37.31 39.89 37.31 37.31 20.47 34.74 37.31 39.89 37.31 37.31 20.47"/>
                    <path class="cls-7"
                          d="M42.74,37.48c0,3-2.43,5.43-5.43,5.43s-5.43-2.43-5.43-5.43,2.43-5.43,5.43-5.43,5.43,2.43,5.43,5.43Z"/>
                    <path class="cls-5"
                          d="M42.74,37.31c0,3-2.43,5.43-5.43,5.43s-5.43-2.43-5.43-5.43,2.43-5.43,5.43-5.43,5.43,2.43,5.43,5.43Z"/>
                    <path class="cls-6"
                          d="M41.79,37.31c0,2.47-2.01,4.48-4.48,4.48s-4.48-2.01-4.48-4.48,2.01-4.48,4.48-4.48,4.48,2.01,4.48,4.48Z"/>
                    <path class="cls-3"
                          d="M41.79,37.31c0,2.47-2.01,4.48-4.48,4.48s-4.48-2.01-4.48-4.48,2.01-4.48,4.48-4.48,4.48,2.01,4.48,4.48Z"/>
                    <path class="cls-2"
                          d="M37.31,0C16.71,0,0,16.71,0,37.31s16.71,37.31,37.31,37.31,37.31-16.71,37.31-37.31S57.92,0,37.31,0Zm0,70.28c-18.2,0-32.96-14.76-32.96-32.96S19.11,4.35,37.31,4.35s32.96,14.76,32.96,32.96-14.76,32.96-32.96,32.96Z"/>
                    <path class="cls-1"
                          d="M37.31,0C16.71,0,0,16.71,0,37.31s16.71,37.31,37.31,37.31,37.31-16.71,37.31-37.31S57.92,0,37.31,0Zm0,70.28c-18.2,0-32.96-14.76-32.96-32.96S19.11,4.35,37.31,4.35s32.96,14.76,32.96,32.96-14.76,32.96-32.96,32.96Z"/>
                </g>
                <g>
                    <path class="cls-4"
                          d="M44.85,2.78c0,.51-.41,.92-.92,.92s-.92-.41-.92-.92,.41-.92,.92-.92,.92,.41,.92,.92Z"/>
                    <path class="cls-4"
                          d="M57.53,8.32c-.2,.47-.74,.69-1.21,.5-.47-.2-.69-.74-.5-1.21,.2-.47,.74-.69,1.21-.5,.47,.2,.69,.74,.5,1.21Z"/>
                    <path class="cls-4"
                          d="M67.11,18.3c-.36,.36-.95,.36-1.31,0-.36-.36-.36-.95,0-1.31,.36-.36,.95-.36,1.31,0,.36,.36,.36,.95,0,1.31Z"/>
                    <path class="cls-4"
                          d="M72.13,31.2c-.47,.19-1.01-.03-1.21-.5-.19-.47,.03-1.01,.5-1.21,.47-.19,1.01,.03,1.21,.5,.19,.47-.03,1.01-.5,1.21Z"/>
                    <path class="cls-4"
                          d="M71.81,45.03c-.51,0-.92-.42-.92-.93,0-.51,.42-.92,.93-.92,.51,0,.92,.42,.92,.93,0,.51-.42,.92-.93,.92Z"/>
                    <path class="cls-4"
                          d="M66.21,57.68c-.47-.2-.69-.74-.49-1.21,.2-.47,.74-.69,1.21-.49,.47,.2,.69,.74,.49,1.21-.2,.47-.74,.69-1.21,.49Z"/>
                    <path class="cls-4"
                          d="M56.17,67.21c-.36-.36-.35-.95,0-1.31,.36-.36,.95-.35,1.31,0,.36,.36,.35,.95-.01,1.31-.36,.36-.95,.35-1.31,0Z"/>
                    <path class="cls-4"
                          d="M43.25,72.16c-.19-.47,.04-1.01,.51-1.2,.47-.19,1.01,.04,1.2,.51,.19,.47-.04,1.01-.51,1.2-.47,.19-1.01-.04-1.2-.51Z"/>
                    <path class="cls-4"
                          d="M29.42,71.77c0-.51,.42-.92,.93-.91,.51,0,.92,.42,.91,.93,0,.51-.42,.92-.93,.91-.51,0-.92-.42-.91-.93Z"/>
                    <path class="cls-4"
                          d="M16.8,66.1c.2-.47,.74-.69,1.21-.49,.47,.2,.69,.74,.49,1.21-.2,.47-.74,.69-1.21,.49-.47-.2-.69-.74-.49-1.21Z"/>
                    <path class="cls-4"
                          d="M7.32,56.02c.37-.36,.95-.35,1.31,.02,.36,.37,.35,.95-.02,1.31-.37,.36-.95,.35-1.31-.02-.36-.37-.35-.95,.02-1.31Z"/>
                    <path class="cls-4"
                          d="M2.44,43.07c.47-.19,1.01,.04,1.2,.52,.19,.47-.04,1.01-.52,1.2-.47,.19-1.01-.04-1.2-.52-.19-.47,.04-1.01,.52-1.2Z"/>
                    <path class="cls-4"
                          d="M2.9,29.24c.51,0,.92,.43,.91,.94,0,.51-.43,.92-.94,.91-.51,0-.92-.43-.91-.94,0-.51,.43-.92,.94-.91Z"/>
                    <path class="cls-4"
                          d="M8.63,16.65c.47,.2,.68,.75,.48,1.22-.2,.47-.75,.68-1.22,.48-.47-.2-.68-.75-.48-1.22,.2-.47,.75-.68,1.22-.48Z"/>
                    <path class="cls-4"
                          d="M18.76,7.22c.35,.37,.34,.95-.02,1.31-.37,.35-.95,.34-1.31-.02-.35-.37-.34-.95,.02-1.31s.95-.34,1.31,.02Z"/>
                    <path class="cls-4"
                          d="M31.73,2.41c.19,.48-.05,1.01-.52,1.2-.47,.19-1.01-.05-1.2-.52-.19-.48,.05-1.01,.52-1.2,.48-.19,1.01,.05,1.2,.52Z"/>
                </g>
            </g>
        </g>
    </g>
</svg>
